<?xml version="1.0" encoding="utf-8"?>
<!-- Generator: Adobe Illustrator 16.0.0, SVG Export Plug-In . SVG Version: 6.00 Build 0)  -->
<!DOCTYPE svg PUBLIC "-//W3C//DTD SVG 1.1//EN" "http://www.w3.org/Graphics/SVG/1.1/DTD/svg11.dtd">
<svg version="1.1" id="Layer_1" xmlns="http://www.w3.org/2000/svg" xmlns:xlink="http://www.w3.org/1999/xlink" x="0px" y="0px"
	 width="405px" height="106.5px" viewBox="0 0 405 106.5" enable-background="new 0 0 405 106.5" xml:space="preserve">
<g>
	
		<image overflow="visible" opacity="0.5" width="414" height="111" xlink:href="6B9CC95A.png"  transform="matrix(1 0 0 1 -5 -1.25)">
	</image>
	<g>
		<g>
			<g>
				<g>
					<g>
						<path fill="#FFFFFF" d="M49.17,97.425c-15.143-0.426-27.504-6.284-35.889-19.196C8.973,71.59,6.607,64.025,7.997,56.111
							c1.606-9.125,5.955-16.945,13.257-23.063c19.96-16.721,51.806-11.942,64.71,10.582c8.224,14.354,4.541,32.524-8.619,43.651
							C71.069,92.587,59.951,97.829,49.17,97.425z M49.119,81.893c0.036,0.213,0.073,0.422,0.109,0.631
							c3.621-0.787,7.416-1.121,10.832-2.438c14.855-5.723,18.53-24.406,7.297-35.133c-8.749-8.354-25.543-8.247-34.015-1.951
							c-11.222,8.34-12.069,23.782-1.578,33.023C36.71,80.38,42.506,82.363,49.119,81.893z"/>
						<path fill="#FFFFFF" d="M213.874,51.578c-0.001,6.104-0.009,12.208,0.003,18.311c0.012,5.582,2.441,9.321,7.67,11.202
							c3.709,1.333,7.578,1.298,11.234-0.295c5.479-2.385,7.881-6.928,6.916-12.644c-0.791-4.68-5.766-8.768-11.117-9.137
							c-1.301-0.09-2.648-0.008-3.895-0.32c-3.931-0.99-6.256-4.273-5.914-8.109c0.321-3.602,3.6-6.778,7.768-6.804
							c17.063-0.104,30.471,12.375,29.751,27.676c-0.503,10.709-6.497,17.921-15.785,22.601
							c-14.642,7.375-31.808,1.457-39.389-10.59c-2.474-3.932-3.742-8.234-3.749-12.875c-0.021-12.906-0.018-25.813-0.003-38.718
							c0.006-5.227,3.398-8.789,8.279-8.772c4.889,0.017,8.197,3.542,8.223,8.854C213.9,38.498,213.874,45.037,213.874,51.578z"/>
						<path fill="#FFFFFF" d="M396.683,51.593c0,5.842,0,11.686,0,17.528c0,13.089-7.939,23.302-20.621,26.813
							c-12.354,3.418-23.093,0.528-31.574-8.85c-11.35-12.546-7.674-31.217,7.198-39.345c4.556-2.49,9.421-3.608,14.492-3.997
							c4.155-0.319,7.749,1.968,8.946,5.439c1.043,3.028,0.018,6.473-2.955,8.145c-1.735,0.974-3.898,1.439-5.913,1.602
							c-4.49,0.362-8.093,2.151-10.481,5.951c-3.659,5.818-0.903,13.564,5.921,16.074c4.565,1.68,9.26,1.587,13.543-1.24
							c3.446-2.277,5.282-5.447,5.276-9.638c-0.013-12.905-0.016-25.813,0.002-38.719c0.005-3.742,1.897-6.729,5.336-7.882
							c3.214-1.077,6.365-0.498,8.588,2.136c1.143,1.351,2.084,3.329,2.143,5.058C396.821,37.636,396.683,44.616,396.683,51.593z"/>
						<path fill="#FFFFFF" d="M164.333,97.443c-10.644-0.086-18.278-3.262-24.281-9.791c-11.46-12.465-8.005-31.202,7.176-39.801
							c10.884-6.165,26.013-4.792,35.582,3.23c14.159,11.871,12.192,32.431-4.078,41.955
							C173.786,95.934,168.462,97.723,164.333,97.443z M162.51,81.859c0.958,0,1.922,0.068,2.875-0.014
							c4.661-0.394,8.952-4.025,10.175-8.557c1.203-4.462-0.393-8.773-4.49-11.641c-4.247-2.969-8.949-3.392-13.7-1.61
							c-6.034,2.261-8.775,7.593-7.305,13.549C151.299,78.577,156.272,81.915,162.51,81.859z"/>
						<path fill="#FFFFFF" d="M332.812,77.473c0,4.014,0.036,8.027-0.008,12.039c-0.051,4.323-3.503,7.723-7.848,7.817
							c-4.617,0.099-8.179-2.981-8.305-7.472c-0.208-7.408-0.361-14.82-0.307-22.232c0.024-3.656-1.28-6.391-4.592-7.768
							c-3.623-1.504-7.374-1.244-10.227,1.593c-1.262,1.253-2.101,3.479-2.158,5.297c-0.238,7.407-0.07,14.827-0.115,22.243
							c-0.022,3.82-1.998,6.492-5.69,7.96c-2.789,1.106-6.502,0.165-8.705-2.582c-0.979-1.224-1.879-2.927-1.907-4.429
							c-0.163-8.371-0.513-16.776,0.098-25.105c0.718-9.859,7.794-17.291,17.725-19.927c12.091-3.21,25.202,2.244,29.977,12.762
							c1.188,2.621,1.713,5.661,1.968,8.558c0.33,3.723,0.081,7.496,0.081,11.246C332.804,77.473,332.808,77.473,332.812,77.473z"/>
						<path fill="#FFFFFF" d="M94.961,77.227c0.251-5.119-0.052-10.343,0.87-15.338c2.019-10.92,14.924-19.467,25.888-17.683
							c3.658,0.596,6.341,3.593,6.398,7.151c0.063,3.95-2.164,6.655-6.225,7.489c-0.848,0.174-1.736,0.146-2.596,0.276
							c-5.582,0.835-7.739,3.526-7.667,9.149c0.087,6.793,0.042,13.59,0.002,20.385c-0.021,3.511-1.483,6.093-4.766,7.742
							c-3.028,1.519-5.687,1.045-8.324-0.727c-2.183-1.465-3.323-3.516-3.332-6.154c-0.014-4.092-0.004-8.188-0.004-12.281
							C95.125,77.232,95.043,77.23,94.961,77.227z"/>
						<path fill="#FFFFFF" d="M277.77,70.555c0,6.021,0.022,12.039-0.006,18.061c-0.025,5.046-3.439,8.652-8.152,8.691
							c-4.646,0.035-8.301-3.584-8.327-8.56c-0.073-12.127-0.067-24.254-0.007-36.381c0.027-5.25,3.4-8.357,8.697-8.267
							c5.139,0.089,7.771,2.906,7.791,8.395C277.786,58.514,277.77,64.534,277.77,70.555z"/>
					</g>
					<circle fill="#FFFFFF" cx="269.141" cy="25.196" r="13.512"/>
					<circle fill="none" stroke="#17C9A7" stroke-width="0.5" stroke-miterlimit="10" cx="269.141" cy="25.196" r="3.051"/>
					
						<line fill="none" stroke="#17C9A7" stroke-width="0.5" stroke-miterlimit="10" x1="270.59" y1="22.636" x2="273.043" y2="17.942"/>
				</g>
			</g>
		</g>
	</g>
</g>
</svg>
